<svg width="186" height="186" viewBox="0 0 186 186" fill="none" xmlns="http://www.w3.org/2000/svg">
<path fill-rule="evenodd" clip-rule="evenodd" d="M12.4467 47.1248C16.3809 45.4388 20.9369 47.2612 22.623 51.1953L15.4996 54.2482C22.623 51.1953 22.6241 51.1979 22.623 51.1953L22.619 51.186C22.6168 51.181 22.6185 51.1846 22.619 51.186L22.6494 51.2547C22.6805 51.3246 22.7338 51.4433 22.8097 51.6076C22.9615 51.9364 23.2033 52.447 23.5364 53.1134C24.2034 54.4473 25.2335 56.3985 26.6396 58.7607C29.4606 63.5 33.7465 69.8121 39.5851 76.0997C40.9612 77.5814 42.4176 79.057 43.9559 80.5055C44.0202 80.5644 44.0838 80.624 44.1466 80.6845C55.6529 91.4593 71.7051 100.748 93 100.748C102.369 100.748 110.657 98.9598 117.962 96.0845C127.463 92.3444 135.427 86.714 141.946 80.5961C149.305 73.6882 154.711 66.261 158.28 60.5334C160.058 57.6808 161.36 55.2804 162.207 53.6212C162.629 52.7924 162.937 52.1512 163.131 51.7342C163.228 51.5257 163.297 51.3735 163.337 51.2821L163.376 51.1953C165.063 47.2634 169.62 45.4392 173.553 47.1248C177.487 48.8109 179.309 53.367 177.623 57.3011L170.5 54.2482C177.623 57.3011 177.624 57.2993 177.623 57.3011L177.606 57.34L177.579 57.4037L177.49 57.604C177.416 57.7693 177.312 57.9974 177.179 58.2837C176.912 58.8561 176.525 59.6619 176.014 60.6631C174.994 62.6639 173.476 65.4553 171.435 68.7304C168.314 73.7382 163.928 79.949 158.174 86.2118L164.355 92.3916C167.381 95.418 167.381 100.325 164.355 103.352C161.328 106.378 156.421 106.378 153.394 103.352L146.883 96.8401C142.51 100.373 137.617 103.704 132.182 106.578L138.245 115.897C140.58 119.484 139.564 124.284 135.976 126.619C132.389 128.954 127.588 127.938 125.254 124.35L117.616 112.612C112.354 114.226 106.733 115.369 100.75 115.904V127.873C100.75 132.154 97.2795 135.623 93 135.623C88.7197 135.623 85.25 132.154 85.25 127.873V115.906C79.2461 115.37 73.6261 114.224 68.3809 112.615L60.7456 124.35C58.4112 127.938 53.6105 128.954 50.0229 126.619C46.4353 124.284 45.4193 119.484 47.7537 115.897L53.8173 106.577C48.3914 103.706 43.4965 100.374 39.1178 96.8386L32.6047 103.352C29.5782 106.378 24.6711 106.378 21.6446 103.352C18.618 100.325 18.618 95.418 21.6446 92.3916L27.8248 86.2118C21.276 79.0833 16.4898 72.013 13.3206 66.6887C11.6994 63.9651 10.4892 61.678 9.67278 60.0451C9.26428 59.2281 8.9535 58.5732 8.73828 58.1073C8.63064 57.8743 8.54686 57.6884 8.48664 57.5529L8.41387 57.388L8.3907 57.3346L8.3824 57.3154L8.37907 57.3076C8.3776 57.3042 8.37628 57.3011 15.4996 54.2482L8.37907 57.3076C6.693 53.3735 8.5126 48.8109 12.4467 47.1248Z" fill="black"/>
</svg>
