<svg width="186" height="186" viewBox="0 0 186 186" fill="none" xmlns="http://www.w3.org/2000/svg">
<path d="M75.5625 93C75.5625 83.3699 83.3699 75.5625 93 75.5625C102.63 75.5625 110.438 83.3699 110.438 93C110.438 102.63 102.63 110.438 93 110.438C83.3699 110.438 75.5625 102.63 75.5625 93Z" fill="black"/>
<path fill-rule="evenodd" clip-rule="evenodd" d="M15.5 93C15.5 105.705 18.7934 109.984 25.3804 118.542C38.5327 135.628 60.5904 155 93 155C125.41 155 147.467 135.628 160.62 118.542C167.206 109.984 170.5 105.705 170.5 93C170.5 80.2947 167.206 76.0161 160.62 67.4586C147.467 50.3716 125.41 31 93 31C60.5904 31 38.5327 50.3716 25.3804 67.4586C18.7934 76.0161 15.5 80.2947 15.5 93ZM93 63.9375C76.9492 63.9375 63.9375 76.9492 63.9375 93C63.9375 109.051 76.9492 122.062 93 122.062C109.051 122.062 122.062 109.051 122.062 93C122.062 76.9492 109.051 63.9375 93 63.9375Z" fill="black"/>
</svg>
