<svg width="55" height="55" fill="#ffffff" viewBox="0 0 24 24" xmlns="http://www.w3.org/2000/svg">
  <path d="M7.322 12.72a1.8 1.8 0 1 0 0-3.6 1.8 1.8 0 0 0 0 3.6Z"></path>
  <path d="M18.723 17.52a2.4 2.4 0 0 1-2.4 2.4h-12a2.4 2.4 0 0 1-2.4-2.4v-9.6a2.4 2.4 0 0 1 2.397-2.4 2.4 2.4 0 0 1 2.4-2.4h12a2.4 2.4 0 0 1 2.4 2.4v9.6a2.4 2.4 0 0 1-2.397 2.4Zm-.002-13.2h-12a1.2 1.2 0 0 0-1.2 1.2h10.802a2.4 2.4 0 0 1 2.4 2.4v8.4a1.2 1.2 0 0 0 1.198-1.2v-9.6a1.2 1.2 0 0 0-1.2-1.2ZM4.323 6.72a1.2 1.2 0 0 0-1.2 1.2v9.6l3.175-2.825a.6.6 0 0 1 .756-.074l3.192 2.128 4.452-4.452a.6.6 0 0 1 .692-.113l2.133 2.336v-6.6a1.2 1.2 0 0 0-1.2-1.2h-12Z"></path>
</svg>