<svg width="186" height="186" viewBox="0 0 186 186" fill="none" xmlns="http://www.w3.org/2000/svg">
<path fill-rule="evenodd" clip-rule="evenodd" d="M40.6875 77.9231V62C40.6875 33.1086 64.1086 9.6875 93 9.6875C121.891 9.6875 145.312 33.1086 145.312 62V77.9231C153.952 78.5687 159.578 80.197 163.69 84.3099C170.5 91.1199 170.5 102.08 170.5 124C170.5 145.92 170.5 156.88 163.69 163.69C156.88 170.5 145.92 170.5 124 170.5H62C40.0797 170.5 29.1195 170.5 22.3098 163.69C15.5 156.88 15.5 145.92 15.5 124C15.5 102.08 15.5 91.1199 22.3098 84.3099C26.4222 80.197 32.0482 78.5687 40.6875 77.9231ZM52.3125 62C52.3125 39.529 70.5289 21.3125 93 21.3125C115.471 21.3125 133.688 39.529 133.688 62V77.5279C130.719 77.5 127.499 77.5 124 77.5H62C58.5008 77.5 55.2808 77.5 52.3125 77.5279V62ZM108.5 124C108.5 132.561 101.561 139.5 93 139.5C84.4394 139.5 77.5 132.561 77.5 124C77.5 115.439 84.4394 108.5 93 108.5C101.561 108.5 108.5 115.439 108.5 124Z" fill="black"/>
</svg>
