<svg width="186" height="186" viewBox="0 0 186 186" fill="none" xmlns="http://www.w3.org/2000/svg">
<path d="M93 77.75C101.561 77.75 108.5 84.6896 108.5 93.25C108.5 101.81 101.561 108.75 93 108.75C84.4394 108.75 77.5 101.81 77.5 93.25C77.5 84.6896 84.4394 77.75 93 77.75Z" fill="white"/>
<path d="M93 131.75C101.561 131.75 108.5 138.689 108.5 147.25C108.5 155.811 101.561 162.75 93 162.75C84.4394 162.75 77.5 155.811 77.5 147.25C77.5 138.689 84.4394 131.75 93 131.75Z" fill="white"/>
<path d="M93 23.75C101.561 23.75 108.5 30.6894 108.5 39.25C108.5 47.8106 101.561 54.75 93 54.75C84.4394 54.75 77.5 47.8106 77.5 39.25C77.5 30.6894 84.4394 23.75 93 23.75Z" fill="white"/>
</svg>
