<svg width="186" height="186" viewBox="0 0 186 186" fill="none" xmlns="http://www.w3.org/2000/svg">
<path d="M18.8811 39.8882C15.5 43.7367 15.5 50.3353 15.5 63.5324V136.33C15.5 145.677 15.5 150.35 17.9381 153.868C20.3762 157.386 24.6389 158.864 33.1641 161.82L43.1941 165.297C48.6263 167.181 52.8063 168.629 56.3141 169.562C58.6024 170.171 60.7083 168.375 60.7083 166.007V48.5933C60.7083 46.6641 59.2847 45.0361 57.4149 44.5618C54.3983 43.7966 50.7723 42.5395 45.8027 40.8166C33.7649 36.6433 27.7461 34.5567 23.1665 36.6757C21.5404 37.428 20.0815 38.5217 18.8811 39.8882Z" fill="#F2B822"/>
<path d="M97.8081 26.9774L85.9041 35.2312C81.5974 38.2171 78.4416 40.4054 75.7466 41.9656C74.4694 42.705 73.625 44.0426 73.625 45.5184V162.132C73.625 165.004 76.6008 166.797 79.0206 165.249C81.6168 163.589 84.5905 161.527 88.1919 159.029L100.096 150.775C104.402 147.79 107.558 145.602 110.253 144.042C111.531 143.302 112.375 141.965 112.375 140.489V23.8749C112.375 21.0028 109.399 19.2096 106.979 20.7573C104.383 22.4185 101.41 24.4802 97.8081 26.9774Z" fill="#F2B822"/>
<path d="M152.836 24.1872L142.806 20.71C137.373 18.8265 133.194 17.3777 129.686 16.4445C127.398 15.8358 125.292 17.632 125.292 20V137.414C125.292 139.343 126.716 140.971 128.585 141.445C131.602 142.21 135.228 143.467 140.198 145.19C152.235 149.363 158.254 151.45 162.834 149.332C164.46 148.579 165.918 147.486 167.119 146.118C170.5 142.271 170.5 135.671 170.5 122.475V49.6766C170.5 40.3302 170.5 35.6571 168.062 32.1389C165.624 28.6206 161.361 27.1428 152.836 24.1872Z" fill="#F2B822"/>
</svg>
