<svg width="186" height="186" viewBox="0 0 186 186" fill="none" xmlns="http://www.w3.org/2000/svg">
<path d="M63.9375 15.5H46.5C31.8864 15.5 24.5797 15.5 20.0399 20.0399C15.5 24.5797 15.5 31.8864 15.5 46.5V63.9375H38.75C41.9601 63.9375 44.5625 66.5399 44.5625 69.75C44.5625 72.9601 41.9601 75.5625 38.75 75.5625H15.5V87.1875H31C34.2101 87.1875 36.8125 89.7899 36.8125 93C36.8125 96.2101 34.2101 98.8125 31 98.8125H15.5V110.438H38.75C41.9601 110.438 44.5625 113.04 44.5625 116.25C44.5625 119.46 41.9601 122.062 38.75 122.062H15.5V133.688H31C34.2101 133.688 36.8125 136.29 36.8125 139.5C36.8125 142.71 34.2101 145.312 31 145.312H15.5006C15.5098 154.919 15.6598 159.941 18.1122 163.611C19.2431 165.304 20.6962 166.757 22.3887 167.887C26.2982 170.5 31.7404 170.5 42.625 170.5C53.5096 170.5 58.9518 170.5 62.8613 167.887C64.5538 166.757 66.0069 165.304 67.1378 163.611C69.75 159.702 69.75 154.26 69.75 143.375V85.25C69.75 77.9433 69.75 74.2899 72.0199 72.0199C74.2899 69.75 77.9433 69.75 85.25 69.75H143.375C154.26 69.75 159.702 69.75 163.611 67.1378C165.304 66.0069 166.757 64.5538 167.887 62.8613C170.5 58.9518 170.5 53.5096 170.5 42.625C170.5 31.7404 170.5 26.2982 167.887 22.3887C166.757 20.6962 165.304 19.2431 163.611 18.1122C159.941 15.6598 154.919 15.5098 145.312 15.5006V31C145.312 34.2101 142.71 36.8125 139.5 36.8125C136.29 36.8125 133.688 34.2101 133.688 31V15.5H122.062V38.75C122.062 41.9601 119.46 44.5625 116.25 44.5625C113.04 44.5625 110.438 41.9601 110.438 38.75V15.5H98.8125V31C98.8125 34.2101 96.2101 36.8125 93 36.8125C89.7899 36.8125 87.1875 34.2101 87.1875 31V15.5H75.5625V38.75C75.5625 41.9601 72.9601 44.5625 69.75 44.5625C66.5399 44.5625 63.9375 41.9601 63.9375 38.75V15.5Z" fill="#F2B822"/>
</svg>
