<svg width="186" height="186" viewBox="0 0 186 186" fill="none" xmlns="http://www.w3.org/2000/svg">
<path fill-rule="evenodd" clip-rule="evenodd" d="M151.125 48.4375C154.335 48.4375 156.937 51.0399 156.937 54.25C156.937 71.6444 149.559 83.0769 139.99 89.9674C130.717 96.644 119.764 98.8125 112.375 98.8125H48.9076L77.7348 127.64C80.0048 129.91 80.0048 133.59 77.7348 135.86C75.4651 138.13 71.7848 138.13 69.5149 135.86L30.7649 97.1098C28.495 94.8399 28.495 91.1601 30.7649 88.8902L69.5149 50.1399C71.7848 47.87 75.4651 47.87 77.7348 50.1399C80.0048 52.4098 80.0048 56.0902 77.7348 58.3601L48.9076 87.1875H112.375C117.903 87.1875 126.325 85.481 133.198 80.5326C139.774 75.7981 145.312 67.8556 145.312 54.25C145.312 51.0399 147.915 48.4375 151.125 48.4375Z" fill="#F2B822"/>
</svg>
