<svg width="186" height="186" viewBox="0 0 186 186" fill="none" xmlns="http://www.w3.org/2000/svg">
<path d="M157.092 126.054L162.559 94.4353C163.925 86.5381 157.852 79.3151 149.846 79.3151H109.693C105.713 79.3151 102.683 75.7429 103.327 71.8114L108.463 40.466C109.297 35.3737 109.059 30.163 107.763 25.1683C106.69 21.0307 103.497 17.7084 99.2992 16.3597L98.1755 15.9987C95.6381 15.1837 92.869 15.3733 90.4766 16.526C87.8439 17.7949 85.9173 20.1092 85.2035 22.8617L81.5168 37.074C80.3435 41.596 78.6354 45.961 76.4319 50.0853C73.2129 56.1113 68.2361 60.9341 63.0626 65.3921L51.9125 75.0006C48.7686 77.71 47.1175 81.7672 47.4753 85.9041L53.7696 158.698C54.3469 165.374 59.9292 170.5 66.6235 170.5H102.65C129.63 170.5 152.656 151.702 157.092 126.054Z" fill="#F2B822"/>
<path fill-rule="evenodd" clip-rule="evenodd" d="M22.9994 73.5094C26.1092 73.3752 28.7727 75.7147 29.0409 78.816L36.5708 165.899C37.0545 171.493 32.6483 176.314 27.022 176.314C21.7224 176.314 17.4375 172.014 17.4375 166.725V79.3166C17.4375 76.2038 19.8896 73.6436 22.9994 73.5094Z" fill="#F2B822"/>
</svg>
