<svg width="186" height="186" viewBox="0 0 186 186" fill="none" xmlns="http://www.w3.org/2000/svg">
<path d="M157.272 65.7591L162.739 97.3772C164.105 105.274 158.032 112.497 150.026 112.497H109.873C105.893 112.497 102.863 116.069 103.507 120.001L108.643 151.347C109.477 156.439 109.239 161.65 107.943 166.644C106.87 170.782 103.677 174.104 99.4792 175.453L98.3555 175.813C95.8181 176.629 93.049 176.439 90.6566 175.286C88.0239 174.018 86.0973 171.704 85.3835 168.951L81.6968 154.739C80.5235 150.217 78.8154 145.851 76.6119 141.727C73.3929 135.701 68.416 130.878 63.2426 126.42L52.0925 116.812C48.9486 114.102 47.2975 110.045 47.6553 105.908L53.9496 33.1152C54.5269 26.4383 60.1092 21.3125 66.8035 21.3125H102.83C129.81 21.3125 152.836 40.111 157.272 65.7591Z" fill="#F2B822"/>
<path fill-rule="evenodd" clip-rule="evenodd" d="M22.9994 118.305C26.1092 118.439 28.7727 116.1 29.0409 112.998L36.5708 25.9151C37.0545 20.3213 32.6483 15.5 27.022 15.5C21.7224 15.5 17.4375 19.7992 17.4375 25.0888V112.497C17.4375 115.61 19.8896 118.17 22.9994 118.305Z" fill="#F2B822"/>
</svg>
