<svg width="186" height="186" viewBox="0 0 186 186" fill="none" xmlns="http://www.w3.org/2000/svg">
<path d="M170.5 108.5V93C170.5 86.4978 170.5 80.7186 170.4 75.5625H15.6C15.5 80.7186 15.5 86.4978 15.5 93V108.5C15.5 137.727 15.5 152.341 24.5797 161.42C33.6594 170.5 48.2729 170.5 77.5 170.5H108.5C137.727 170.5 152.341 170.5 161.42 161.42C170.5 152.341 170.5 137.727 170.5 108.5Z" fill="#F2B822"/>
<path d="M60.0625 19.375C60.0625 16.1649 57.4601 13.5625 54.25 13.5625C51.0399 13.5625 48.4375 16.1649 48.4375 19.375V31.6143C37.2827 32.5075 29.9597 34.6996 24.5797 40.0797C19.1996 45.4597 17.0074 52.7827 16.1143 63.9375H169.885C168.993 52.7827 166.8 45.4597 161.42 40.0797C156.04 34.6996 148.717 32.5075 137.562 31.6143V19.375C137.562 16.1649 134.96 13.5625 131.75 13.5625C128.54 13.5625 125.937 16.1649 125.937 19.375V31.1C120.781 31 115.002 31 108.5 31H77.5C70.9975 31 65.2183 31 60.0625 31.1V19.375Z" fill="#F2B822"/>
</svg>
