<svg width="186" height="186" viewBox="0 0 186 186" fill="none" xmlns="http://www.w3.org/2000/svg">
<path d="M46.5 34.875C46.5 27.6317 46.5 24.0101 48.0574 21.3125C49.0777 19.5453 50.5453 18.0777 52.3125 17.0574C55.0101 15.5 58.6317 15.5 65.875 15.5H120.125C127.368 15.5 130.99 15.5 133.688 17.0574C135.455 18.0777 136.922 19.5453 137.942 21.3125C139.5 24.0101 139.5 27.6317 139.5 34.875C139.5 42.1183 139.5 45.7399 137.942 48.4375C136.922 50.2047 135.455 51.6723 133.688 52.6926C130.99 54.25 127.368 54.25 120.125 54.25H65.875C58.6317 54.25 55.0101 54.25 52.3125 52.6926C50.5453 51.6723 49.0777 50.2047 48.0574 48.4375C46.5 45.7399 46.5 42.1183 46.5 34.875Z" fill="white"/>
<path d="M38.7666 30.528C37.5678 31.5926 36.8125 33.1457 36.8125 34.8752C36.8125 36.6047 37.5678 38.1577 38.7666 39.2224C38.7498 37.9455 38.7499 36.5959 38.75 35.1869V34.5635C38.7499 33.1545 38.7498 31.8048 38.7666 30.528Z" fill="white"/>
<path d="M77.5 124V155C77.5 162.307 77.5 165.96 79.77 168.23C82.04 170.5 85.6933 170.5 93 170.5C100.307 170.5 103.96 170.5 106.23 168.23C108.5 165.96 108.5 162.307 108.5 155V124C108.5 116.693 108.5 113.04 106.23 110.77C103.96 108.5 100.307 108.5 93 108.5C85.6933 108.5 82.04 108.5 79.77 110.77C77.5 113.04 77.5 116.693 77.5 124Z" fill="white"/>
<path d="M147.207 40.6875H147.601C151.124 40.6875 153.49 40.6904 155.322 40.8099C157.106 40.9262 157.978 41.1351 158.552 41.361C161.053 42.3456 163.032 44.3251 164.017 46.8261C164.243 47.3997 164.452 48.2715 164.568 50.0555C164.688 51.8886 164.691 54.2534 164.691 57.777C164.691 64.2663 164.608 66.0443 164.137 67.3779C163.329 69.6662 161.691 71.5678 159.548 72.7065C158.299 73.37 156.553 73.7149 150.136 74.6775L118.18 79.4708C112.191 80.3691 107.165 81.1231 103.193 82.2399C98.9838 83.4233 95.2599 85.1903 92.3537 88.5655C89.3839 92.0134 88.1586 96.1426 87.63 100.798C89.2126 100.749 90.8843 100.75 92.58 100.75H93.4232C95.4769 100.75 97.4942 100.749 99.3612 100.835C99.7487 98.3491 100.349 97.0967 101.162 96.1519C102.01 95.1669 103.313 94.2819 106.339 93.4309C109.524 92.535 113.82 91.8801 120.266 90.9129L152.784 86.0359C157.827 85.2841 161.755 84.6982 165.003 82.9723C169.718 80.4675 173.32 76.2836 175.099 71.2493C176.323 67.7814 176.32 63.8099 176.316 58.7108V57.5901C176.316 54.3012 176.316 51.5556 176.168 49.2993C176.015 46.9513 175.686 44.7308 174.834 42.5675C172.668 37.0652 168.312 32.7104 162.81 30.5441C160.647 29.6924 158.426 29.3626 156.079 29.2095C153.822 29.0624 151.076 29.0624 147.788 29.0625H147.207C147.252 30.7572 147.252 32.6028 147.252 34.5631V35.1869C147.252 37.1473 147.252 38.9928 147.207 40.6875Z" fill="white"/>
</svg>
