<svg width="186" height="186" viewBox="0 0 186 186" fill="none" xmlns="http://www.w3.org/2000/svg">
<path fill-rule="evenodd" clip-rule="evenodd" d="M25.1875 170.5C25.1875 167.29 27.7899 164.688 31 164.688H155C158.21 164.688 160.812 167.29 160.812 170.5C160.812 173.71 158.21 176.312 155 176.312H31C27.7899 176.312 25.1875 173.71 25.1875 170.5Z" fill="white"/>
<path d="M89.2808 115.7L135.135 69.8449C128.894 67.2475 121.502 62.9808 114.512 55.9902C107.52 48.9984 103.253 41.6056 100.656 35.3642L54.8007 81.2192C51.2226 84.7974 49.4331 86.5869 47.8944 88.56C46.0793 90.8866 44.5231 93.4045 43.2533 96.069C42.177 98.3273 41.3768 100.728 39.7765 105.529L31.3376 130.846C30.55 133.209 31.1649 135.813 32.9259 137.574C34.6869 139.335 37.2916 139.95 39.6542 139.162L64.9709 130.724C69.7718 129.124 72.1724 128.323 74.4309 127.246C77.0951 125.977 79.6134 124.421 81.94 122.606C83.9131 121.067 85.7026 119.278 89.2808 115.7Z" fill="white"/>
<path d="M147.859 57.1209C157.38 47.5996 157.38 32.1624 147.859 22.641C138.338 13.1197 122.9 13.1197 113.379 22.641L107.879 28.1406C107.954 28.3681 108.033 28.5987 108.114 28.8322C110.13 34.6425 113.933 42.2593 121.088 49.4142C128.243 56.569 135.86 60.3724 141.67 62.3882C141.903 62.4689 142.132 62.5467 142.358 62.6216L147.859 57.1209Z" fill="white"/>
</svg>
