<svg width="186" height="186" viewBox="0 0 186 186" fill="none" xmlns="http://www.w3.org/2000/svg">
<path d="M128.311 100.023L124.78 103.532C124.78 103.532 116.39 111.875 93.489 89.1033C70.5879 66.3323 78.9779 57.9899 78.9779 57.9899L81.2006 55.7797C86.6768 50.335 87.1929 41.5936 82.4151 35.212L72.6428 22.1579C66.7297 14.2594 55.3037 13.216 48.5262 19.9549L36.3618 32.0503C33.0013 35.3918 30.7493 39.7233 31.0224 44.5285C31.7211 56.8216 37.283 83.2714 68.319 114.131C101.231 146.856 132.113 148.157 144.741 146.98C148.736 146.608 152.209 144.573 155.009 141.789L166.018 130.843C173.45 123.454 171.354 110.785 161.846 105.617L147.039 97.5679C140.796 94.1741 133.19 95.1708 128.311 100.023Z" fill="black"/>
</svg>
