<svg width="186" height="186" viewBox="0 0 186 186" fill="none" xmlns="http://www.w3.org/2000/svg">
<path d="M120.561 112.745L117.03 116.461C117.03 116.461 108.64 125.294 85.739 101.183C62.8379 77.0725 71.2279 68.2393 71.2279 68.2393L73.4508 65.8991C78.9268 60.1341 79.4429 50.8785 74.6653 44.1215L64.8927 30.2995C58.9797 21.9364 47.5537 20.8316 40.7762 27.967L28.6118 40.7738C25.2513 44.3119 22.9993 48.8982 23.2724 53.986C23.971 67.0023 29.533 95.0073 60.569 127.683C93.4813 162.333 124.363 163.71 136.991 162.464C140.986 162.07 144.459 159.916 147.259 156.968L158.268 145.378C165.7 137.554 163.604 124.141 154.096 118.668L139.289 110.145C133.046 106.552 125.44 107.607 120.561 112.745Z" fill="white"/>
<path d="M102.761 14.5687C103.274 11.3998 106.27 9.25019 109.439 9.76316C109.635 9.80075 110.266 9.9187 110.596 9.99233C111.258 10.1397 112.18 10.3663 113.331 10.7014C115.631 11.3713 118.844 12.475 122.7 14.243C130.422 17.7829 140.697 23.9751 151.359 34.6376C162.022 45.3 168.214 55.575 171.753 63.2962C173.522 67.1528 174.625 70.3659 175.295 72.666C175.63 73.8161 175.857 74.7386 176.004 75.3998C176.078 75.7305 176.132 75.9961 176.169 76.1922L176.214 76.434C176.726 79.6026 174.597 82.7227 171.428 83.2358C168.268 83.7473 165.291 81.6075 164.766 78.454C164.75 78.3688 164.705 78.1417 164.657 77.9271C164.561 77.4977 164.396 76.8171 164.134 75.9169C163.609 74.1163 162.699 71.44 161.186 68.141C158.165 61.5511 152.732 52.4512 143.139 42.8577C133.546 33.2643 124.446 27.8316 117.856 24.8104C114.557 23.2979 111.881 22.3871 110.079 21.8625C109.18 21.6004 108.048 21.3407 107.619 21.2451C104.465 20.7194 102.25 17.7285 102.761 14.5687Z" fill="white"/>
<path fill-rule="evenodd" clip-rule="evenodd" d="M104.514 41.3021C105.396 38.2154 108.613 36.4281 111.7 37.31L110.104 42.8989C111.7 37.31 111.7 37.31 111.7 37.31L111.712 37.3132L111.723 37.3166L111.749 37.3241L111.809 37.3421L111.963 37.3899C112.079 37.4272 112.225 37.4759 112.399 37.5377C112.747 37.6612 113.207 37.8368 113.772 38.0786C114.901 38.5625 116.443 39.3098 118.339 40.4313C122.132 42.6763 127.31 46.4054 133.394 52.489C139.478 58.5726 143.206 63.751 145.451 67.5443C146.573 69.4393 147.32 70.982 147.804 72.1111C148.046 72.6753 148.222 73.1354 148.345 73.4834C148.407 73.6574 148.455 73.8033 148.493 73.9202L148.54 74.0736L148.558 74.1336L148.566 74.1594L148.569 74.1714C148.569 74.1714 148.573 74.1825 142.984 75.7793L148.573 74.1825C149.455 77.2691 147.667 80.4861 144.581 81.368C141.52 82.2422 138.331 80.493 137.418 77.4545L137.389 77.371C137.348 77.2545 137.263 77.0252 137.119 76.6904C136.832 76.0213 136.312 74.9268 135.448 73.4652C133.719 70.5455 130.598 66.1338 125.173 60.7091C119.749 55.2845 115.337 52.1635 112.418 50.4355C110.956 49.5705 109.862 49.0504 109.192 48.7637C108.857 48.6202 108.628 48.5347 108.512 48.4934L108.428 48.4648C105.39 47.5512 103.64 44.3625 104.514 41.3021Z" fill="white"/>
</svg>
