<svg width="187" height="187" viewBox="0 0 187 187" fill="none" xmlns="http://www.w3.org/2000/svg">
<path d="M64.4829 15.5364H47.0454C32.4319 15.5364 25.1251 15.5364 20.5853 20.0762C16.0454 24.616 16.0454 31.9228 16.0454 46.5364V63.9739H39.2954C42.5055 63.9739 45.1079 66.5762 45.1079 69.7864C45.1079 72.9965 42.5055 75.5989 39.2954 75.5989H16.0454V87.2239H31.5454C34.7555 87.2239 37.3579 89.8263 37.3579 93.0364C37.3579 96.2464 34.7555 98.8489 31.5454 98.8489H16.0454V110.474H39.2954C42.5055 110.474 45.1079 113.076 45.1079 116.286C45.1079 119.496 42.5055 122.099 39.2954 122.099H16.0454V133.724H31.5454C34.7555 133.724 37.3579 136.326 37.3579 139.536C37.3579 142.746 34.7555 145.349 31.5454 145.349H16.046C16.0552 154.956 16.2052 159.978 18.6576 163.647C19.7885 165.34 21.2416 166.793 22.9341 167.924C26.8436 170.536 32.2858 170.536 43.1704 170.536C54.055 170.536 59.4973 170.536 63.4067 167.924C65.0992 166.793 66.5523 165.34 67.6832 163.647C70.2954 159.738 70.2954 154.296 70.2954 143.411V85.2864C70.2954 77.9797 70.2954 74.3262 72.5653 72.0563C74.8353 69.7864 78.4887 69.7864 85.7954 69.7864H143.92C154.805 69.7864 160.247 69.7864 164.156 67.1741C165.849 66.0433 167.302 64.5901 168.433 62.8977C171.045 58.9882 171.045 53.5459 171.045 42.6614C171.045 31.7768 171.045 26.3345 168.433 22.425C167.302 20.7326 165.849 19.2795 164.156 18.1486C160.487 15.6962 155.465 15.5461 145.858 15.537V31.0364C145.858 34.2465 143.255 36.8489 140.045 36.8489C136.835 36.8489 134.233 34.2465 134.233 31.0364V15.5364H122.608V38.7864C122.608 41.9965 120.005 44.5989 116.795 44.5989C113.585 44.5989 110.983 41.9965 110.983 38.7864V15.5364H99.3579V31.0364C99.3579 34.2465 96.7555 36.8489 93.5454 36.8489C90.3354 36.8489 87.7329 34.2465 87.7329 31.0364V15.5364H76.1079V38.7864C76.1079 41.9965 73.5055 44.5989 70.2954 44.5989C67.0853 44.5989 64.4829 41.9965 64.4829 38.7864V15.5364Z" fill="white"/>
</svg>
