<svg width="186" height="186" viewBox="0 0 186 186" fill="none" xmlns="http://www.w3.org/2000/svg">
<path d="M142.266 12.5095C143.917 9.75688 147.488 8.86431 150.241 10.5159L147.25 15.5001C150.241 10.5159 150.238 10.5143 150.241 10.5159L150.252 10.5223L150.263 10.5297L150.292 10.5472L150.366 10.593C150.424 10.6285 150.495 10.6738 150.58 10.729C150.751 10.8392 150.976 10.9894 151.249 11.1802C151.794 11.5617 152.53 12.1081 153.393 12.827C155.114 14.2614 157.365 16.4042 159.607 19.3186C164.124 25.1911 168.562 34.157 168.562 46.5001C168.562 58.8431 164.124 67.809 159.607 73.6815C157.365 76.5959 155.114 78.7385 153.393 80.173C152.53 80.8922 151.794 81.4386 151.249 81.8199C150.976 82.0105 150.751 82.1609 150.58 82.2709C150.537 82.2988 150.499 82.3236 150.463 82.3461C150.427 82.3693 150.395 82.3895 150.366 82.4073L150.292 82.453L150.263 82.4701L150.252 82.4778C150.248 82.4794 150.241 82.484 147.25 77.5L150.241 82.484C147.488 84.1356 143.917 83.2435 142.266 80.4907C140.621 77.7496 141.499 74.1976 144.225 72.5368L144.268 72.5095C144.324 72.4729 144.431 72.4021 144.582 72.2963C144.885 72.0844 145.36 71.7347 145.951 71.2426C147.136 70.2552 148.76 68.7167 150.393 66.5936C153.626 62.3911 156.937 55.857 156.937 46.5001C156.937 37.1431 153.626 30.609 150.393 26.4065C148.76 24.2834 147.136 22.7449 145.951 21.7575C145.36 21.2655 144.885 20.9157 144.582 20.7038C144.431 20.598 144.324 20.5272 144.268 20.4907L144.225 20.4633C141.499 18.8026 140.621 15.2507 142.266 12.5095Z" fill="white"/>
<path d="M77.5 77.5C94.6205 77.5 108.5 63.6209 108.5 46.5001C108.5 29.3792 94.6205 15.5001 77.5 15.5001C60.3792 15.5001 46.5 29.3792 46.5 46.5001C46.5 63.6209 60.3792 77.5 77.5 77.5Z" fill="white"/>
<path d="M15.5 135.625C15.5 154.886 15.5 170.5 77.5 170.5C139.5 170.5 139.5 154.886 139.5 135.625C139.5 116.364 111.742 100.75 77.5 100.75C43.2583 100.75 15.5 116.364 15.5 135.625Z" fill="white"/>
<path d="M134.741 26.0159C131.988 24.3643 128.417 25.2569 126.766 28.0095L128.689 35.9416L128.75 35.9829C128.841 36.0464 129.013 36.1721 129.24 36.3615C129.699 36.7434 130.353 37.3615 131.018 38.2253C132.313 39.909 133.687 42.5681 133.687 46.5001C133.687 50.432 132.313 53.0911 131.018 54.7748C130.353 55.6386 129.699 56.2567 129.24 56.6387C129.013 56.828 128.841 56.9538 128.75 57.0173L128.689 57.0585C125.992 58.7283 125.128 62.2613 126.766 64.9906C128.417 67.7432 131.988 68.6359 134.741 66.9843L131.75 62.0001C134.741 66.9843 134.738 66.9858 134.741 66.9843L134.751 66.978L134.762 66.9712L134.786 66.9564L134.845 66.9207L134.993 66.8261C135.107 66.7525 135.249 66.6576 135.416 66.5408C135.749 66.3078 136.183 65.9854 136.682 65.5693C137.676 64.7403 138.959 63.5178 140.232 61.8628C142.812 58.509 145.312 53.4181 145.312 46.5001C145.312 39.582 142.812 34.4911 140.232 31.1373C138.959 29.4823 137.676 28.2598 136.682 27.4309C136.183 27.0147 135.749 26.6924 135.416 26.4593C135.249 26.3426 135.107 26.2476 134.993 26.1741L134.845 26.0794L134.786 26.0438L134.762 26.0289L134.751 26.0221C134.748 26.0206 134.741 26.0159 131.75 31.0001L134.741 26.0159Z" fill="white"/>
</svg>
