<svg width="186" height="187" viewBox="0 0 186 187" fill="none" xmlns="http://www.w3.org/2000/svg">
<path fill-rule="evenodd" clip-rule="evenodd" d="M170.5 93.5C170.5 136.302 135.802 171 93 171C50.1979 171 15.5 136.302 15.5 93.5C15.5 50.6979 50.1979 16 93 16C135.802 16 170.5 50.6979 170.5 93.5ZM116.25 78C116.25 90.841 105.841 101.25 93 101.25C80.159 101.25 69.75 90.841 69.75 78C69.75 65.1594 80.159 54.75 93 54.75C105.841 54.75 116.25 65.1594 116.25 78ZM93 159.375C106.826 159.375 119.658 155.116 130.253 147.837C134.934 144.622 136.933 138.498 134.213 133.515C128.573 123.185 116.949 116.75 92.9992 116.75C69.0501 116.75 57.4273 123.184 51.7866 133.515C49.0656 138.498 51.0655 144.621 55.7454 147.836C66.3414 155.115 79.1732 159.375 93 159.375Z" fill="white"/>
</svg>
