<svg width="187" height="187" viewBox="0 0 187 187" fill="none" xmlns="http://www.w3.org/2000/svg">
<path d="M76.3185 93.0643C76.3185 83.4341 84.1258 75.6268 93.756 75.6268C103.386 75.6268 111.193 83.4341 111.193 93.0643C111.193 102.694 103.386 110.502 93.756 110.502C84.1258 110.502 76.3185 102.694 76.3185 93.0643Z" fill="white"/>
<path fill-rule="evenodd" clip-rule="evenodd" d="M16.256 93.0643C16.256 105.77 19.5494 110.048 26.1364 118.606C39.2887 135.692 61.3463 155.064 93.756 155.064C126.166 155.064 148.223 135.692 161.376 118.606C167.962 110.048 171.256 105.77 171.256 93.0643C171.256 80.3589 167.962 76.0804 161.376 67.5228C148.223 50.4359 126.166 31.0643 93.756 31.0643C61.3463 31.0643 39.2887 50.4359 26.1364 67.5228C19.5494 76.0804 16.256 80.3589 16.256 93.0643ZM93.756 64.0018C77.7052 64.0018 64.6935 77.0135 64.6935 93.0643C64.6935 109.115 77.7052 122.127 93.756 122.127C109.807 122.127 122.818 109.115 122.818 93.0643C122.818 77.0135 109.807 64.0018 93.756 64.0018Z" fill="white"/>
</svg>
